MoBL_ARMS_module2_4_elbow_flexion_states	
version=1	
nRows=294	
nColumns=2	
inDegrees=yes	
	
# SIMM Motion File Header:	
name MoBL_ARMS_module2_4_elbow_flexion_states	
datacolumns 2	
datarows 294	
otherdata 1	
range 1.256035964 1.964337958	
endheader	
time	elbow_flexion
1.256035964	15.2799367
1.258453377	15.22834186
1.260870789	15.17750755
1.263288202	15.12743869
1.265705615	15.07814
1.268123028	15.02961601
1.270540441	14.9818711
1.272957854	14.93490947
1.275375267	14.88873512
1.27779268	14.84335191
1.280210093	14.7987635
1.282627506	14.75497338
1.285044919	14.71198489
1.287462332	14.66980116
1.289879745	14.62842518
1.292297158	14.58785976
1.294714571	14.54810755
1.297131984	14.509171
1.299549397	14.47105245
1.30196681	14.43375402
1.304384223	14.39727771
1.306801636	14.36162533
1.309219048	14.32679854
1.311636461	14.29279884
1.314053874	14.25962758
1.316471287	14.22728595
1.3188887	14.19577498
1.321306113	14.16509553
1.323723526	14.13524833
1.326140939	14.10623394
1.328558352	14.07805277
1.330975765	14.0507051
1.333393178	14.02419104
1.335810591	13.99851056
1.338228004	13.9736635
1.340645417	13.94964954
1.34306283	13.92646821
1.345480243	13.90411892
1.347897656	13.88260091
1.350315069	13.86191331
1.352732482	13.8420551
1.355149895	13.82302512
1.357567307	13.80482207
1.35998472	13.78744453
1.362402133	13.77089094
1.364819546	13.75515961
1.367236959	13.7402487
1.369654372	13.72615628
1.372071785	13.71288025
1.374489198	13.70041841
1.376906611	13.68876843
1.379324024	13.67792785
1.381741437	13.66789408
1.38415885	13.65866442
1.386576263	13.65023605
1.388993676	13.64260601
1.391411089	13.63577126
1.393828502	13.62972859
1.396245915	13.62447472
1.398663328	13.62000622
1.401080741	13.61631958
1.403498154	13.61341115
1.405915567	13.61127717
1.408332979	13.60991379
1.410750392	13.60931703
1.413167805	13.6094828
1.415585218	13.61040692
1.418002631	13.61208509
1.420420044	13.61451291
1.422837457	13.61768588
1.42525487	13.62159939
1.427672283	13.62624874
1.430089696	13.6316291
1.432507109	13.63773559
1.434924522	13.64456318
1.437341935	13.65210679
1.439759348	13.66036121
1.442176761	13.66932116
1.444594174	13.67898124
1.447011587	13.68933598
1.449429	13.70037982
1.451846413	13.7121071
1.454263826	13.72451207
1.456681238	13.7375889
1.459098651	13.75133168
1.461516064	13.7657344
1.463933477	13.78079097
1.46635089	13.79649524
1.468768303	13.81284094
1.471185716	13.82982176
1.473603129	13.84743127
1.476020542	13.865663
1.478437955	13.88451038
1.480855368	13.90396677
1.483272781	13.92402547
1.485690194	13.94467968
1.488107607	13.96592255
1.49052502	13.98774715
1.492942433	14.01014649
1.495359846	14.0331135
1.497777259	14.05664104
1.500194672	14.08072192
1.502612085	14.10534888
1.505029497	14.13051459
1.50744691	14.15621167
1.509864323	14.18243265
1.512281736	14.20917005
1.514699149	14.23641628
1.517116562	14.26416373
1.519533975	14.29240471
1.521951388	14.32113148
1.524368801	14.35033626
1.526786214	14.3800112
1.529203627	14.41014842
1.53162104	14.44073999
1.534038453	14.47177793
1.536455866	14.50325419
1.538873279	14.5351607
1.541290692	14.56748935
1.543708105	14.60023197
1.546125518	14.63338035
1.548542931	14.66692625
1.550960344	14.70086138
1.553377756	14.73517742
1.555795169	14.76986603
1.558212582	14.8049188
1.560629995	14.84032732
1.563047408	14.87608313
1.565464821	14.91217775
1.567882234	14.94860266
1.570299647	14.98534933
1.57271706	15.02240919
1.575134473	15.05977365
1.577551886	15.09743409
1.579969299	15.13538189
1.582386712	15.1736084
1.584804125	15.21210493
1.587221538	15.25086281
1.589638951	15.28987327
1.592056364	15.32912758
1.594473777	15.36861704
1.59689119	15.40833294
1.599308603	15.44826653
1.601726016	15.48840905
1.604143428	15.52875176
1.606560841	15.56928588
1.608978254	15.61000265
1.611395667	15.65089329
1.61381308	15.69194903
1.616230493	15.73316111
1.618647906	15.77452075
1.621065319	15.8160192
1.623482732	15.8576477
1.625900145	15.8993975
1.628317558	15.94125987
1.630734971	15.98322607
1.633152384	16.02528741
1.635569797	16.06743516
1.63798721	16.10966066
1.640404623	16.15195524
1.642822036	16.19431024
1.645239449	16.23671705
1.647656862	16.27916705
1.650074275	16.32165167
1.652491687	16.36416236
1.6549091	16.40669058
1.657326513	16.44922784
1.659743926	16.49176566
1.662161339	16.53429562
1.664578752	16.57680931
1.666996165	16.61929835
1.669413578	16.66175443
1.671830991	16.70416924
1.674248404	16.74653453
1.676665817	16.78884208
1.67908323	16.83108368
1.681500643	16.87325124
1.683918056	16.91533668
1.686335469	16.95733197
1.688752882	16.99922914
1.691170295	17.04102025
1.693587708	17.08269742
1.696005121	17.12425282
1.698422534	17.16567868
1.700839946	17.20696729
1.703257359	17.24811098
1.705674772	17.28910216
1.708092185	17.32993329
1.710509598	17.37059689
1.712927011	17.41108555
1.715344424	17.45139192
1.717761837	17.49150874
1.72017925	17.53142877
1.722596663	17.57114489
1.725014076	17.61065001
1.727431489	17.64993714
1.729848902	17.68899935
1.732266315	17.72782979
1.734683728	17.76642168
1.737101141	17.80476833
1.739518554	17.8428631
1.741935967	17.88069947
1.74435338	17.91827097
1.746770793	17.95557121
1.749188206	17.99259392
1.751605618	18.02933287
1.754023031	18.06578193
1.756440444	18.10193508
1.758857857	18.13778636
1.76127527	18.17332991
1.763692683	18.20855996
1.766110096	18.24347082
1.768527509	18.2780569
1.770944922	18.31231272
1.773362335	18.34623286
1.775779748	18.37981201
1.778197161	18.41304497
1.780614574	18.44592662
1.783031987	18.47845194
1.7854494	18.51061601
1.787866813	18.54241401
1.790284226	18.57384122
1.792701639	18.604893
1.795119052	18.63556486
1.797536465	18.66585216
1.799953877	18.69575067
1.80237129	18.72525626
1.804788703	18.75436484
1.807206116	18.78307241
1.809623529	18.81137508
1.812040942	18.83926904
1.814458355	18.86675062
1.816875768	18.89381622
1.819293181	18.92046239
1.821710594	18.94668575
1.824128007	18.97248303
1.82654542	18.99785111
1.828962833	19.02278691
1.831380246	19.04728753
1.833797659	19.07135013
1.836215072	19.09497199
1.838632485	19.1181505
1.841049898	19.14088319
1.843467311	19.16316764
1.845884724	19.18500159
1.848302136	19.20638288
1.850719549	19.22730943
1.853136962	19.24777931
1.855554375	19.26779068
1.857971788	19.2873418
1.860389201	19.30643107
1.862806614	19.32505697
1.865224027	19.34321804
1.86764144	19.360913
1.870058853	19.37814068
1.872476266	19.39490003
1.874893679	19.4111901
1.877311092	19.42701004
1.879728505	19.4423591
1.882145918	19.45723666
1.884563331	19.47164218
1.886980744	19.48557524
1.889398157	19.49903552
1.89181557	19.51202283
1.894232983	19.52453705
1.896650396	19.53657819
1.899067808	19.54814634
1.901485221	19.55924174
1.903902634	19.56986468
1.906320047	19.58001559
1.90873746	19.58969498
1.911154873	19.59890348
1.913572286	19.60764182
1.915989699	19.61591081
1.918407112	19.62371139
1.920824525	19.63104456
1.923241938	19.63791146
1.925659351	19.64431329
1.928076764	19.65025139
1.930494177	19.65572715
1.93291159	19.66074208
1.935329003	19.66529778
1.937746416	19.66939594
1.940163829	19.67303833
1.942581242	19.67622683
1.944998655	19.67896342
1.947416067	19.68125014
1.94983348	19.68308916
1.952250893	19.68448269
1.954668306	19.68543307
1.957085719	19.68594269
1.959503132	19.68601404
1.961920545	19.68564969
1.964337958	19.6848523
